<svg id="Layer_1" data-name="Layer 1" xmlns="http://www.w3.org/2000/svg" xmlns:xlink="http://www.w3.org/1999/xlink" viewBox="0 0 301.48 220.09"><defs><style>.cls-1{fill:url(#linear-gradient);}.cls-2{fill:url(#linear-gradient-2);}.cls-3{fill:url(#linear-gradient-3);}.cls-4{fill:url(#linear-gradient-4);}.cls-5{fill:url(#linear-gradient-5);}.cls-6{fill:url(#linear-gradient-6);}.cls-7{fill:url(#linear-gradient-7);}.cls-8{fill:url(#linear-gradient-8);}.cls-9{fill:url(#linear-gradient-9);}.cls-10{fill:url(#linear-gradient-10);}.cls-11{fill:url(#linear-gradient-11);}.cls-12{fill:url(#linear-gradient-12);}.cls-13{fill:url(#linear-gradient-13);}.cls-14{fill:url(#linear-gradient-14);}.cls-15{fill:url(#linear-gradient-15);}.cls-16{fill:url(#linear-gradient-16);}.cls-17{fill:url(#linear-gradient-17);}.cls-18{fill:url(#linear-gradient-18);}.cls-19{fill:url(#linear-gradient-19);}.cls-20{fill:url(#linear-gradient-20);}.cls-21{fill:url(#linear-gradient-21);}.cls-22{fill:url(#linear-gradient-22);}.cls-23{fill:url(#linear-gradient-23);}.cls-24{fill:url(#linear-gradient-24);}.cls-25{fill:url(#linear-gradient-25);}.cls-26{fill:url(#linear-gradient-26);}.cls-27{fill:url(#linear-gradient-27);}.cls-28{fill:url(#linear-gradient-28);}.cls-29{fill:url(#linear-gradient-29);}.cls-30{fill:url(#linear-gradient-30);}.cls-31{fill:url(#linear-gradient-31);}.cls-32{fill:url(#linear-gradient-32);}.cls-33{fill:url(#linear-gradient-33);}.cls-34{fill:url(#linear-gradient-34);}.cls-35{fill:url(#linear-gradient-35);}.cls-36{fill:url(#linear-gradient-36);}.cls-37{fill:url(#linear-gradient-37);}.cls-38{fill:url(#linear-gradient-38);}.cls-39{fill:url(#linear-gradient-39);}.cls-40{fill:url(#linear-gradient-40);}.cls-41{fill:url(#linear-gradient-41);}.cls-42{fill:url(#linear-gradient-42);}.cls-43{fill:url(#linear-gradient-43);}.cls-44{fill:url(#linear-gradient-44);}.cls-45{fill:url(#linear-gradient-45);}.cls-46{fill:url(#linear-gradient-46);}.cls-47{fill:url(#linear-gradient-47);}.cls-48{fill:url(#linear-gradient-48);}.cls-49{fill:url(#linear-gradient-49);}.cls-50{fill:url(#linear-gradient-50);}.cls-51{fill:url(#linear-gradient-51);}.cls-52{fill:url(#linear-gradient-52);}.cls-53{fill:url(#linear-gradient-53);}.cls-54{fill:url(#linear-gradient-54);}.cls-55{fill:url(#linear-gradient-55);}.cls-56{fill:url(#linear-gradient-56);}.cls-57{fill:url(#linear-gradient-57);}.cls-58{fill:url(#linear-gradient-58);}.cls-59{fill:url(#linear-gradient-59);}.cls-60{fill:url(#linear-gradient-60);}.cls-61{fill:url(#linear-gradient-61);}.cls-62{fill:url(#linear-gradient-62);}.cls-63{fill:url(#linear-gradient-63);}.cls-64{fill:url(#linear-gradient-64);}.cls-65{fill:url(#linear-gradient-65);}.cls-66{fill:url(#linear-gradient-66);}.cls-67{fill:url(#linear-gradient-67);}.cls-68{fill:url(#linear-gradient-68);}.cls-69{fill:url(#linear-gradient-69);}.cls-70{fill:url(#linear-gradient-70);}.cls-71{fill:url(#linear-gradient-71);}.cls-72{fill:url(#linear-gradient-72);}.cls-73{fill:url(#linear-gradient-73);}.cls-74{fill:url(#linear-gradient-74);}.cls-75{fill:url(#linear-gradient-75);}.cls-76{fill:url(#linear-gradient-76);}.cls-77{fill:url(#linear-gradient-77);}.cls-78{fill:url(#linear-gradient-78);}.cls-79{fill:url(#linear-gradient-79);}.cls-80{fill:url(#linear-gradient-80);}.cls-81{fill:url(#linear-gradient-81);}.cls-82{fill:url(#linear-gradient-82);}.cls-83{fill:url(#linear-gradient-83);}.cls-84{fill:url(#linear-gradient-84);}.cls-85{fill:url(#linear-gradient-85);}.cls-86{fill:url(#linear-gradient-86);}.cls-87{fill:url(#linear-gradient-87);}.cls-88{fill:url(#linear-gradient-88);}.cls-89{font-size:52px;fill:#fff;font-family:AmbroiseStd-Bold, Ambroise Std;font-weight:700;}.cls-90{font-size:31px;}.cls-91{letter-spacing:-0.03em;}.cls-92{letter-spacing:-0.04em;}</style><linearGradient id="linear-gradient" x1="-4.96" y1="39.48" x2="223.21" y2="267.65" gradientUnits="userSpaceOnUse"><stop offset="0.01" stop-color="#6e3e19"/><stop offset="0.01" stop-color="#80562d"/><stop offset="0.02" stop-color="#9d7a4c"/><stop offset="0.02" stop-color="#b69a67"/><stop offset="0.03" stop-color="#cbb67e"/><stop offset="0.04" stop-color="#dccc90"/><stop offset="0.05" stop-color="#e9dd9f"/><stop offset="0.07" stop-color="#f2e8a9"/><stop offset="0.08" stop-color="#f8efae"/><stop offset="0.14" stop-color="#f9f1b0"/><stop offset="0.15" stop-color="#f8eba0"/><stop offset="0.16" stop-color="#f6e28a"/><stop offset="0.18" stop-color="#f5db79"/><stop offset="0.2" stop-color="#f5d66e"/><stop offset="0.23" stop-color="#f4d467"/><stop offset="0.32" stop-color="#f4d365"/><stop offset="0.32" stop-color="#f4d467"/><stop offset="0.33" stop-color="#f6e279"/><stop offset="0.35" stop-color="#f8eb86"/><stop offset="0.37" stop-color="#f9f08e"/><stop offset="0.42" stop-color="#f9f290"/><stop offset="0.49" stop-color="#f9f3a6"/><stop offset="0.5" stop-color="#f7efa0"/><stop offset="0.54" stop-color="#f0dd82"/><stop offset="0.58" stop-color="#ead06c"/><stop offset="0.62" stop-color="#e7c95f"/><stop offset="0.66" stop-color="#e6c65b"/><stop offset="0.68" stop-color="#ead06f"/><stop offset="0.73" stop-color="#f5e9a4"/><stop offset="0.75" stop-color="#f8f1b3"/><stop offset="0.76" stop-color="#eddd96"/><stop offset="0.79" stop-color="#e0c470"/><stop offset="0.81" stop-color="#d5b052"/><stop offset="0.84" stop-color="#cda13d"/><stop offset="0.86" stop-color="#c99930"/><stop offset="0.88" stop-color="#c7962c"/><stop offset="0.89" stop-color="#c99b32"/><stop offset="0.9" stop-color="#d1a843"/><stop offset="0.91" stop-color="#dcbd60"/><stop offset="0.93" stop-color="#ecdb87"/><stop offset="0.93" stop-color="#f9f3a6"/><stop offset="0.94" stop-color="#f6efa3"/><stop offset="0.95" stop-color="#ede49b"/><stop offset="0.96" stop-color="#ded28c"/><stop offset="0.97" stop-color="#c8b778"/><stop offset="0.98" stop-color="#ad955e"/><stop offset="0.99" stop-color="#8b6c3e"/><stop offset="1" stop-color="#643c19"/><stop offset="1" stop-color="#5f3615"/></linearGradient><linearGradient id="linear-gradient-2" x1="-9.81" y1="44.33" x2="218.36" y2="272.5" xlink:href="#linear-gradient"/><linearGradient id="linear-gradient-3" x1="-14.11" y1="48.63" x2="214.06" y2="276.8" xlink:href="#linear-gradient"/><linearGradient id="linear-gradient-4" x1="-17.84" y1="52.36" x2="210.33" y2="280.53" xlink:href="#linear-gradient"/><linearGradient id="linear-gradient-5" x1="-20.97" y1="55.49" x2="207.2" y2="283.66" xlink:href="#linear-gradient"/><linearGradient id="linear-gradient-6" x1="-23.47" y1="57.99" x2="204.7" y2="286.16" xlink:href="#linear-gradient"/><linearGradient id="linear-gradient-7" x1="-25.32" y1="59.84" x2="202.84" y2="288.01" xlink:href="#linear-gradient"/><linearGradient id="linear-gradient-8" x1="-26.47" y1="60.99" x2="201.7" y2="289.16" xlink:href="#linear-gradient"/><linearGradient id="linear-gradient-9" x1="-26.91" y1="61.43" x2="201.26" y2="289.6" xlink:href="#linear-gradient"/><linearGradient id="linear-gradient-10" x1="-26.61" y1="61.13" x2="201.56" y2="289.3" xlink:href="#linear-gradient"/><linearGradient id="linear-gradient-11" x1="-25.59" y1="60.11" x2="202.58" y2="288.27" xlink:href="#linear-gradient"/><linearGradient id="linear-gradient-12" x1="-23.83" y1="58.35" x2="204.34" y2="286.52" xlink:href="#linear-gradient"/><linearGradient id="linear-gradient-13" x1="-21.35" y1="55.87" x2="206.82" y2="284.03" xlink:href="#linear-gradient"/><linearGradient id="linear-gradient-14" x1="-18.18" y1="52.7" x2="209.98" y2="280.87" xlink:href="#linear-gradient"/><linearGradient id="linear-gradient-15" x1="-14.37" y1="48.89" x2="213.8" y2="277.05" xlink:href="#linear-gradient"/><linearGradient id="linear-gradient-16" x1="-9.94" y1="44.45" x2="218.23" y2="272.62" xlink:href="#linear-gradient"/><linearGradient id="linear-gradient-17" x1="-4.95" y1="39.46" x2="223.22" y2="267.63" xlink:href="#linear-gradient"/><linearGradient id="linear-gradient-18" x1="0.54" y1="33.97" x2="228.71" y2="262.14" xlink:href="#linear-gradient"/><linearGradient id="linear-gradient-19" x1="6.47" y1="28.04" x2="234.64" y2="256.21" xlink:href="#linear-gradient"/><linearGradient id="linear-gradient-20" x1="12.78" y1="21.74" x2="240.95" y2="249.91" xlink:href="#linear-gradient"/><linearGradient id="linear-gradient-21" x1="19.4" y1="15.11" x2="247.57" y2="243.29" xlink:href="#linear-gradient"/><linearGradient id="linear-gradient-22" x1="26.22" y1="8.29" x2="254.39" y2="236.46" xlink:href="#linear-gradient"/><linearGradient id="linear-gradient-23" x1="-22.98" y1="57.5" x2="205.19" y2="285.67" xlink:href="#linear-gradient"/><linearGradient id="linear-gradient-24" x1="-27.91" y1="62.42" x2="200.26" y2="290.59" xlink:href="#linear-gradient"/><linearGradient id="linear-gradient-25" x1="-32.1" y1="66.62" x2="196.07" y2="294.79" xlink:href="#linear-gradient"/><linearGradient id="linear-gradient-26" x1="-35.49" y1="70.01" x2="192.68" y2="298.18" xlink:href="#linear-gradient"/><linearGradient id="linear-gradient-27" x1="-38.05" y1="72.57" x2="190.12" y2="300.74" xlink:href="#linear-gradient"/><linearGradient id="linear-gradient-28" x1="-39.76" y1="74.28" x2="188.41" y2="302.45" xlink:href="#linear-gradient"/><linearGradient id="linear-gradient-29" x1="-40.6" y1="75.11" x2="187.57" y2="303.28" xlink:href="#linear-gradient"/><linearGradient id="linear-gradient-30" x1="-40.57" y1="75.09" x2="187.59" y2="303.26" xlink:href="#linear-gradient"/><linearGradient id="linear-gradient-31" x1="-39.69" y1="74.2" x2="188.48" y2="302.37" xlink:href="#linear-gradient"/><linearGradient id="linear-gradient-32" x1="-37.94" y1="72.46" x2="190.23" y2="300.63" xlink:href="#linear-gradient"/><linearGradient id="linear-gradient-33" x1="-35.33" y1="69.85" x2="192.84" y2="298.02" xlink:href="#linear-gradient"/><linearGradient id="linear-gradient-34" x1="-31.96" y1="66.48" x2="196.21" y2="294.65" xlink:href="#linear-gradient"/><linearGradient id="linear-gradient-35" x1="-27.85" y1="62.37" x2="200.32" y2="290.54" xlink:href="#linear-gradient"/><linearGradient id="linear-gradient-36" x1="-23.09" y1="57.6" x2="205.08" y2="285.77" xlink:href="#linear-gradient"/><linearGradient id="linear-gradient-37" x1="-17.69" y1="52.21" x2="210.48" y2="280.37" xlink:href="#linear-gradient"/><linearGradient id="linear-gradient-38" x1="-11.72" y1="46.24" x2="216.45" y2="274.41" xlink:href="#linear-gradient"/><linearGradient id="linear-gradient-39" x1="-5.24" y1="39.76" x2="222.93" y2="267.93" xlink:href="#linear-gradient"/><linearGradient id="linear-gradient-40" x1="1.69" y1="32.83" x2="229.86" y2="260.99" xlink:href="#linear-gradient"/><linearGradient id="linear-gradient-41" x1="9.02" y1="25.5" x2="237.19" y2="253.67" xlink:href="#linear-gradient"/><linearGradient id="linear-gradient-42" x1="16.64" y1="17.87" x2="244.81" y2="246.04" xlink:href="#linear-gradient"/><linearGradient id="linear-gradient-43" x1="24.5" y1="10.02" x2="252.67" y2="238.19" xlink:href="#linear-gradient"/><linearGradient id="linear-gradient-44" x1="33.95" y1="0.57" x2="262.11" y2="228.74" xlink:href="#linear-gradient"/><linearGradient id="linear-gradient-45" x1="52.8" y1="-18.28" x2="280.97" y2="209.89" xlink:href="#linear-gradient"/><linearGradient id="linear-gradient-46" x1="14.57" y1="19.95" x2="242.74" y2="248.11" xlink:href="#linear-gradient"/><linearGradient id="linear-gradient-47" x1="19.55" y1="14.96" x2="247.72" y2="243.13" xlink:href="#linear-gradient"/><linearGradient id="linear-gradient-48" x1="25" y1="9.52" x2="253.17" y2="237.69" xlink:href="#linear-gradient"/><linearGradient id="linear-gradient-49" x1="30.85" y1="3.67" x2="259.01" y2="231.84" xlink:href="#linear-gradient"/><linearGradient id="linear-gradient-50" x1="37.02" y1="-2.51" x2="265.19" y2="225.66" xlink:href="#linear-gradient"/><linearGradient id="linear-gradient-51" x1="43.45" y1="-8.93" x2="271.61" y2="219.24" xlink:href="#linear-gradient"/><linearGradient id="linear-gradient-52" x1="50.04" y1="-15.52" x2="278.21" y2="212.65" xlink:href="#linear-gradient"/><linearGradient id="linear-gradient-53" x1="56.75" y1="-22.23" x2="284.92" y2="205.94" xlink:href="#linear-gradient"/><linearGradient id="linear-gradient-54" x1="63.5" y1="-28.99" x2="291.67" y2="199.18" xlink:href="#linear-gradient"/><linearGradient id="linear-gradient-55" x1="70.24" y1="-35.72" x2="298.41" y2="192.45" xlink:href="#linear-gradient"/><linearGradient id="linear-gradient-56" x1="76.83" y1="-42.32" x2="305" y2="185.85" xlink:href="#linear-gradient"/><linearGradient id="linear-gradient-57" x1="83.24" y1="-48.73" x2="311.42" y2="179.44" xlink:href="#linear-gradient"/><linearGradient id="linear-gradient-58" x1="89.35" y1="-54.83" x2="317.52" y2="173.34" xlink:href="#linear-gradient"/><linearGradient id="linear-gradient-59" x1="95.1" y1="-60.58" x2="323.27" y2="167.59" xlink:href="#linear-gradient"/><linearGradient id="linear-gradient-60" x1="100.41" y1="-65.89" x2="328.58" y2="162.28" xlink:href="#linear-gradient"/><linearGradient id="linear-gradient-61" x1="105.21" y1="-70.69" x2="333.38" y2="157.47" xlink:href="#linear-gradient"/><linearGradient id="linear-gradient-62" x1="109.44" y1="-74.92" x2="337.61" y2="153.25" xlink:href="#linear-gradient"/><linearGradient id="linear-gradient-63" x1="113.02" y1="-78.51" x2="341.19" y2="149.66" xlink:href="#linear-gradient"/><linearGradient id="linear-gradient-64" x1="115.92" y1="-81.4" x2="344.08" y2="146.77" xlink:href="#linear-gradient"/><linearGradient id="linear-gradient-65" x1="118.08" y1="-83.56" x2="346.25" y2="144.61" xlink:href="#linear-gradient"/><linearGradient id="linear-gradient-66" x1="119.5" y1="-84.99" x2="347.67" y2="143.18" xlink:href="#linear-gradient"/><linearGradient id="linear-gradient-67" x1="5.61" y1="28.91" x2="233.78" y2="257.08" xlink:href="#linear-gradient"/><linearGradient id="linear-gradient-68" x1="12.11" y1="22.4" x2="240.28" y2="250.57" xlink:href="#linear-gradient"/><linearGradient id="linear-gradient-69" x1="19.11" y1="15.41" x2="247.28" y2="243.58" xlink:href="#linear-gradient"/><linearGradient id="linear-gradient-70" x1="26.5" y1="8.01" x2="254.67" y2="236.18" xlink:href="#linear-gradient"/><linearGradient id="linear-gradient-71" x1="34.21" y1="0.31" x2="262.37" y2="228.48" xlink:href="#linear-gradient"/><linearGradient id="linear-gradient-72" x1="42.16" y1="-7.64" x2="270.33" y2="220.53" xlink:href="#linear-gradient"/><linearGradient id="linear-gradient-73" x1="50.25" y1="-15.74" x2="278.42" y2="212.43" xlink:href="#linear-gradient"/><linearGradient id="linear-gradient-74" x1="58.41" y1="-23.89" x2="286.58" y2="204.27" xlink:href="#linear-gradient"/><linearGradient id="linear-gradient-75" x1="66.54" y1="-32.02" x2="294.71" y2="196.15" xlink:href="#linear-gradient"/><linearGradient id="linear-gradient-76" x1="74.56" y1="-40.04" x2="302.72" y2="188.13" xlink:href="#linear-gradient"/><linearGradient id="linear-gradient-77" x1="82.26" y1="-47.74" x2="310.43" y2="180.43" xlink:href="#linear-gradient"/><linearGradient id="linear-gradient-78" x1="89.6" y1="-55.08" x2="317.77" y2="173.09" xlink:href="#linear-gradient"/><linearGradient id="linear-gradient-79" x1="96.49" y1="-61.97" x2="324.66" y2="166.2" xlink:href="#linear-gradient"/><linearGradient id="linear-gradient-80" x1="102.87" y1="-68.35" x2="331.04" y2="159.82" xlink:href="#linear-gradient"/><linearGradient id="linear-gradient-81" x1="108.67" y1="-74.16" x2="336.84" y2="154.01" xlink:href="#linear-gradient"/><linearGradient id="linear-gradient-82" x1="113.86" y1="-79.34" x2="342.03" y2="148.82" xlink:href="#linear-gradient"/><linearGradient id="linear-gradient-83" x1="118.37" y1="-83.85" x2="346.54" y2="144.31" xlink:href="#linear-gradient"/><linearGradient id="linear-gradient-84" x1="122.14" y1="-87.62" x2="350.31" y2="140.55" xlink:href="#linear-gradient"/><linearGradient id="linear-gradient-85" x1="125.12" y1="-90.61" x2="353.3" y2="137.56" xlink:href="#linear-gradient"/><linearGradient id="linear-gradient-86" x1="127.31" y1="-92.79" x2="355.48" y2="135.38" xlink:href="#linear-gradient"/><linearGradient id="linear-gradient-87" x1="128.66" y1="-94.15" x2="356.83" y2="134.02" xlink:href="#linear-gradient"/><linearGradient id="linear-gradient-88" x1="124.44" y1="-89.92" x2="352.6" y2="138.25" xlink:href="#linear-gradient"/></defs><path class="cls-1" d="M49.68,35.73C17.93,77.8,26.25,145,77.23,176.44c38.8,23.77,77.76,6.6,86.65,29.8a23.1,23.1,0,0,0,1.58-2.85c-11.81-23.3-48.37-5.2-87.21-28.6C28,144.36,19.09,78.18,50.31,36.19Z"/><path class="cls-2" d="M122.24,171.09c2.43,2,5.65,5.63,6.25,8.71a6.34,6.34,0,0,1,.11,6.53,2.31,2.31,0,0,1-.1.28C122.22,184.6,120.76,177.42,122.24,171.09Z"/><path class="cls-3" d="M113.62,170.37c4,3.95,7.91,11.2,4.79,15.75C112.45,183.78,111.6,176.41,113.62,170.37Z"/><path class="cls-4" d="M105.09,168.71c3.58,4.16,6.75,11.66,3.31,15.83C102.8,181.78,102.56,174.44,105.09,168.71Z"/><path class="cls-5" d="M96.77,166.07c3.61,5.28,5.32,12.28,1.84,15.81C93.44,178.78,93.67,171.57,96.77,166.07Z"/><path class="cls-6" d="M88.75,162.51c2.65,4.71,4.42,12.25.42,15.67C84.31,174.67,85.35,167.44,88.75,162.51Z"/><path class="cls-7" d="M81.1,158.07c2.23,4.74,3.28,12.36-.92,15.41C76.08,170.2,76.92,163.09,81.1,158.07Z"/><path class="cls-8" d="M74,152.8c1.83,4.91,2.13,12.47-2.21,15C67.77,163.52,69.82,156.93,74,152.8Z"/><path class="cls-9" d="M67.39,146.72c1.18,5.06,1.18,12.35-3.43,14.57C60.49,156.91,62.77,150.58,67.39,146.72Z"/><path class="cls-10" d="M61.5,139.94c.81,5.08,0,12.25-4.57,14C53.79,149.31,56.89,143.17,61.5,139.94Z"/><path class="cls-11" d="M56.36,132.53c.52,4.84-1,12-5.65,13.4C48.23,141.51,51.05,135.6,56.36,132.53Z"/><path class="cls-12" d="M52.07,124.56c-.18,4.95-1.87,11.72-6.67,12.7C43.27,132.14,47.06,126.89,52.07,124.56Z"/><path class="cls-13" d="M48.68,116.12c-.4,4.77-3,11.37-7.6,11.94C39.69,123.78,42.48,118.38,48.68,116.12Z"/><path class="cls-14" d="M46.21,107.31c-.74,4.62-3.82,10.93-8.45,11.13C36.49,113.77,40.63,108.83,46.21,107.31Z"/><path class="cls-15" d="M44.72,98.22c-1,4.44-4.65,10.44-9.22,10.29C34.72,103.35,39.57,99.17,44.72,98.22Z"/><path class="cls-16" d="M44.23,89c-1.34,4.22-5.39,10-9.9,9.43C33.78,93.51,39.08,89.48,44.23,89Z"/><path class="cls-17" d="M44.76,79.66c-1.7,4.13-6.12,9.34-10.5,8.52C34.13,84.36,38.33,79.8,44.76,79.66Z"/><path class="cls-18" d="M46.31,70.44c-2,4-6.82,8.72-11,7.58C35.47,74.21,40,70.07,46.31,70.44Z"/><path class="cls-19" d="M48.89,61.41c-2.29,3.72-7.4,8.06-11.48,6.62C37.93,64.23,42.81,60.56,48.89,61.41Z"/><path class="cls-20" d="M52.48,52.67c-2.67,3.67-8,7.34-11.87,5.65C41.44,54.59,46.6,51.38,52.48,52.67Z"/><path class="cls-21" d="M57.05,44.33C54.29,47.58,48.63,51,44.86,49,46,45.44,51.31,42.6,57.05,44.33Z"/><path class="cls-22" d="M62.52,36.52c-3,3-8.87,5.94-12.44,3.7C51.83,36.13,57.79,34.67,62.52,36.52Z"/><path class="cls-23" d="M116.5,208.83c-2.08-6.93,1.63-13.73,8.63-15.07,1.59,2.09,2.34,4.6.58,8a11.39,11.39,0,0,1-1.64,2.37,12.8,12.8,0,0,1-2.19,2A21.73,21.73,0,0,1,116.5,208.83Z"/><path class="cls-24" d="M104.18,206.49c-1.1-6.52,2.68-12.91,10.25-13.72,1.3,2.21,1.73,4.74-.41,7.89a12.18,12.18,0,0,1-4.26,3.8,20,20,0,0,1-2.7,1.22A18.74,18.74,0,0,1,104.18,206.49Z"/><path class="cls-25" d="M92.19,202.84a11.56,11.56,0,0,1,3.43-9c2.76-2.73,5.22-3.18,8.25-3.18,1,2.29,1.11,4.8-1.37,7.64a11,11,0,0,1-2.11,1.87,14.29,14.29,0,0,1-2.51,1.33A18.27,18.27,0,0,1,92.19,202.84Z"/><path class="cls-26" d="M80.71,197.94a11.57,11.57,0,0,1,8.75-10.46,9.9,9.9,0,0,1,4.16-.07C95.57,194,88.24,198.11,80.71,197.94Z"/><path class="cls-27" d="M69.88,191.86c1.4-6.33,7.56-10.63,13.92-8.79C84.87,189.75,77.29,192.82,69.88,191.86Z"/><path class="cls-28" d="M59.8,184.68c2.26-6.12,8.63-9.31,14.71-7C74.73,184.29,67,186.43,59.8,184.68Z"/><path class="cls-29" d="M50.61,176.47c2.78-5.34,9.44-8.21,15.24-5.06C65.29,177.71,57.36,179.12,50.61,176.47Z"/><path class="cls-30" d="M42.37,167.35a11.17,11.17,0,0,1,15.53-3.1C56.62,170.27,48.76,170.69,42.37,167.35Z"/><path class="cls-31" d="M35.17,157.45c4.12-4.49,11.21-5.21,15.6-1.17C48.65,162.16,40.87,161.24,35.17,157.45Z"/><path class="cls-32" d="M29.09,146.87c4.44-3.69,11.48-3.84,15.46.73C42.55,151.54,36.17,152.76,29.09,146.87Z"/><path class="cls-33" d="M24.23,135.71a11.2,11.2,0,0,1,15.05,2.61C36.63,142.23,29.73,141.84,24.23,135.71Z"/><path class="cls-34" d="M20.61,124.13A11.18,11.18,0,0,1,35,128.54c-3.4,3.85-9.14,1.38-12.84-2.45A21.16,21.16,0,0,1,20.61,124.13Z"/><path class="cls-35" d="M18.28,112.28c5.22-1.55,11.37.72,13.57,6.1-3.77,3.31-9.3.05-12.25-4A22.13,22.13,0,0,1,18.28,112.28Z"/><path class="cls-36" d="M17.23,100.29c6.08-.93,11.42,3,12.55,7.65C26.6,110,20.75,108.51,17.23,100.29Z"/><path class="cls-37" d="M17.48,88.33c5.85-.09,10.8,4.25,11.38,9C25.45,99,19.92,96.6,17.48,88.33Z"/><path class="cls-38" d="M19,76.5c5.35.65,10,5.24,10,10.24C24.46,88.24,20.13,83.12,19,76.5Z"/><path class="cls-39" d="M21.77,64.92c5.31,1.42,9.11,6.61,8.56,11.3C26.77,76.89,22.14,73.15,21.77,64.92Z"/><path class="cls-40" d="M25.76,53.75c4.79,2,8,7.36,7,12.15C28.07,66.15,25.29,60,25.76,53.75Z"/><path class="cls-41" d="M30.92,43.13a11.48,11.48,0,0,1,5.33,12.8C32.72,55.62,29.4,50.81,30.92,43.13Z"/><path class="cls-42" d="M37.18,33.14C40.7,36,43,41.38,40.8,46.36,36.47,45.37,35.3,38.92,37.18,33.14Z"/><path class="cls-43" d="M44.45,23.92c3.13,3.42,4.48,9,1.9,13.43C42.28,35.78,42,29.37,44.45,23.92Z"/><path class="cls-44" d="M65.81,19.38c-2.11,5.47-7.32,12.53-13.13,13C52.17,26.23,59,20.72,65.81,19.38Z"/><path class="cls-45" d="M249.16,35.73C280.92,77.8,272.6,145,221.61,176.44c-38.8,23.77-77.76,6.6-86.64,29.8a23.1,23.1,0,0,1-1.58-2.85c11.8-23.3,48.37-5.2,87.21-28.6,50.23-30.43,59.16-96.61,27.93-138.6Z"/><path class="cls-46" d="M176.6,171.09c-2.42,2-5.64,5.63-6.24,8.71a6.3,6.3,0,0,0-.12,6.53,2.33,2.33,0,0,0,.11.28C176.63,184.6,178.08,177.42,176.6,171.09Z"/><path class="cls-47" d="M185.22,170.37c-4,3.95-7.91,11.2-4.78,15.75C186.39,183.78,187.25,176.41,185.22,170.37Z"/><path class="cls-48" d="M193.75,168.71c-3.58,4.16-6.74,11.66-3.3,15.83C196.05,181.78,196.29,174.44,193.75,168.71Z"/><path class="cls-49" d="M202.07,166.07c-3.61,5.28-5.31,12.28-1.84,15.81C205.4,178.78,205.17,171.57,202.07,166.07Z"/><path class="cls-50" d="M210.1,162.51c-2.65,4.71-4.42,12.25-.43,15.67C214.54,174.67,213.5,167.44,210.1,162.51Z"/><path class="cls-51" d="M217.74,158.07c-2.22,4.74-3.28,12.36.93,15.41C222.77,170.2,221.92,163.09,217.74,158.07Z"/><path class="cls-52" d="M224.9,152.8c-1.83,4.91-2.13,12.47,2.2,15C231.08,163.52,229,156.93,224.9,152.8Z"/><path class="cls-53" d="M231.46,146.72c-1.18,5.06-1.18,12.35,3.42,14.57C238.35,156.91,236.07,150.58,231.46,146.72Z"/><path class="cls-54" d="M237.34,139.94c-.81,5.08,0,12.25,4.58,14C245.05,149.31,242,143.17,237.34,139.94Z"/><path class="cls-55" d="M242.48,132.53c-.51,4.84,1,12,5.66,13.4C250.62,141.51,247.79,135.6,242.48,132.53Z"/><path class="cls-56" d="M246.78,124.56c.17,4.95,1.86,11.72,6.66,12.7C255.57,132.14,251.78,126.89,246.78,124.56Z"/><path class="cls-57" d="M250.17,116.12c.39,4.77,2.94,11.37,7.6,11.94C259.16,123.78,256.36,118.38,250.17,116.12Z"/><path class="cls-58" d="M252.63,107.31c.75,4.62,3.83,10.93,8.45,11.13C262.36,113.77,258.21,108.83,252.63,107.31Z"/><path class="cls-59" d="M254.13,98.22c1,4.44,4.65,10.44,9.21,10.29C264.12,103.35,259.27,99.17,254.13,98.22Z"/><path class="cls-60" d="M254.61,89c1.34,4.22,5.39,10,9.9,9.43C265.06,93.51,259.76,89.48,254.61,89Z"/><path class="cls-61" d="M254.09,79.66c1.7,4.13,6.11,9.34,10.5,8.52C264.72,84.36,260.51,79.8,254.09,79.66Z"/><path class="cls-62" d="M252.53,70.44c2,4,6.83,8.72,11,7.58C263.37,74.21,258.81,70.07,252.53,70.44Z"/><path class="cls-63" d="M250,61.41c2.29,3.72,7.41,8.06,11.49,6.62C260.91,64.23,256,60.56,250,61.41Z"/><path class="cls-64" d="M246.36,52.67c2.67,3.67,8.06,7.34,11.88,5.65C257.4,54.59,252.24,51.38,246.36,52.67Z"/><path class="cls-65" d="M241.79,44.33C244.56,47.58,250.22,51,254,49,252.87,45.44,247.53,42.6,241.79,44.33Z"/><path class="cls-66" d="M236.33,36.52c3,3,8.87,5.94,12.44,3.7C247,36.13,241.06,34.67,236.33,36.52Z"/><path class="cls-67" d="M182.35,208.83c2.07-6.93-1.64-13.73-8.64-15.07-1.59,2.09-2.34,4.6-.58,8a11.43,11.43,0,0,0,1.65,2.37,12.37,12.37,0,0,0,2.18,2A21.63,21.63,0,0,0,182.35,208.83Z"/><path class="cls-68" d="M194.67,206.49c1.09-6.52-2.69-12.91-10.25-13.72-1.3,2.21-1.74,4.74.4,7.89a12.18,12.18,0,0,0,4.26,3.8,20.72,20.72,0,0,0,2.71,1.22A18.43,18.43,0,0,0,194.67,206.49Z"/><path class="cls-69" d="M206.66,202.84a11.57,11.57,0,0,0-3.44-9c-2.75-2.73-5.21-3.18-8.25-3.18-1,2.29-1.11,4.8,1.37,7.64a11.36,11.36,0,0,0,2.11,1.87,14.38,14.38,0,0,0,2.52,1.33A18.27,18.27,0,0,0,206.66,202.84Z"/><path class="cls-70" d="M218.13,197.94a11.56,11.56,0,0,0-8.74-10.46,10,10,0,0,0-4.17-.07C203.27,194,210.6,198.11,218.13,197.94Z"/><path class="cls-71" d="M229,191.86c-1.41-6.33-7.57-10.63-13.93-8.79C214,189.75,221.56,192.82,229,191.86Z"/><path class="cls-72" d="M239.05,184.68c-2.26-6.12-8.64-9.31-14.72-7C224.11,184.29,231.88,186.43,239.05,184.68Z"/><path class="cls-73" d="M248.24,176.47c-2.79-5.34-9.45-8.21-15.24-5.06C233.55,177.71,241.48,179.12,248.24,176.47Z"/><path class="cls-74" d="M256.47,167.35a11.17,11.17,0,0,0-15.53-3.1C242.23,170.27,250.08,170.69,256.47,167.35Z"/><path class="cls-75" d="M263.67,157.45c-4.11-4.49-11.21-5.21-15.6-1.17C250.19,162.16,258,161.24,263.67,157.45Z"/><path class="cls-76" d="M269.76,146.87c-4.44-3.69-11.49-3.84-15.47.73C256.3,151.54,262.68,152.76,269.76,146.87Z"/><path class="cls-77" d="M274.61,135.71a11.21,11.21,0,0,0-15.05,2.61C262.22,142.23,269.11,141.84,274.61,135.71Z"/><path class="cls-78" d="M278.23,124.13a11.17,11.17,0,0,0-14.41,4.41c3.4,3.85,9.13,1.38,12.84-2.45A21.05,21.05,0,0,0,278.23,124.13Z"/><path class="cls-79" d="M280.57,112.28c-5.22-1.55-11.38.72-13.57,6.1,3.77,3.31,9.3.05,12.24-4A22.24,22.24,0,0,0,280.57,112.28Z"/><path class="cls-80" d="M281.61,100.29c-6.07-.93-11.42,3-12.55,7.65C272.25,110,278.09,108.51,281.61,100.29Z"/><path class="cls-81" d="M281.36,88.33c-5.85-.09-10.79,4.25-11.38,9C273.39,99,278.93,96.6,281.36,88.33Z"/><path class="cls-82" d="M279.85,76.5c-5.36.65-10,5.24-10.05,10.24C274.38,88.24,278.71,83.12,279.85,76.5Z"/><path class="cls-83" d="M277.08,64.92c-5.32,1.42-9.11,6.61-8.57,11.3C272.08,76.89,276.71,73.15,277.08,64.92Z"/><path class="cls-84" d="M273.08,53.75c-4.79,2-8,7.36-7,12.15C270.77,66.15,273.55,60,273.08,53.75Z"/><path class="cls-85" d="M267.93,43.13c-4.07,2.46-6.85,7.58-5.34,12.8C266.12,55.62,269.44,50.81,267.93,43.13Z"/><path class="cls-86" d="M261.67,33.14C258.14,36,255.9,41.38,258,46.36,262.37,45.37,263.54,38.92,261.67,33.14Z"/><path class="cls-87" d="M254.39,23.92c-3.13,3.42-4.48,9-1.89,13.43C256.56,35.78,256.88,29.37,254.39,23.92Z"/><path class="cls-88" d="M233,19.38c2.12,5.47,7.33,12.53,13.14,13C246.67,26.23,239.8,20.72,233,19.38Z"/><text class="cls-89" transform="translate(81.62 97.61)">MTW<tspan class="cls-90"><tspan x="-12.68" y="33">APP</tspan><tspan class="cls-91" x="46.62" y="33">R</tspan><tspan class="cls-92" x="66.49" y="33">O</tspan><tspan x="86.74" y="33">VED</tspan></tspan></text></svg>